<svg xmlns="http://www.w3.org/2000/svg" viewBox="0 0 512 512" fill="none">
  <rect width="512" height="512" rx="128" fill="#000000"/>
  <path d="M256 100c-86.2 0-156 69.8-156 156s69.8 156 156 156 156-69.8 156-156-69.8-156-156-156zm0 280c-68.4 0-124-55.6-124-124s55.6-124 124-124 124 55.6 124 124-55.6 124-124 124z" fill="#D4AF37"/>
  <path d="M256 140c-64 0-116 52-116 116h32c0-46.4 37.6-84 84-84V140z" fill="#D4AF37"/>
  <circle cx="256" cy="256" r="40" fill="#D4AF37"/>
  <path d="M320 180l-30 30M192 180l30 30M256 350v40" stroke="#D4AF37" stroke-width="16" stroke-linecap="round"/>
</svg>
